<?xml version="1.0" encoding="UTF-8"?>
<svg id="Layer_1" xmlns="http://www.w3.org/2000/svg" xmlns:xlink="http://www.w3.org/1999/xlink" version="1.1" viewBox="0 0 108 108">
  <!-- Generator: Adobe Illustrator 29.2.1, SVG Export Plug-In . SVG Version: 2.1.0 Build 116)  -->
  <defs>
    <style>
      .st0 {
        fill: none;
      }

      .st1 {
        fill: #e87200;
      }

      .st2 {
        fill: #fff;
      }

      .st3 {
        clip-path: url(#clippath);
      }
    </style>
    <clipPath id="clippath">
      <polygon class="st0" points="14.3 71.4 22 95.2 90.1 43.5 54.8 9.9 14.3 71.4"/>
    </clipPath>
  </defs>
  <path class="st2" d="M63.3,73.5h0c0-1.5,1.1-2.7,2.7-2.7s1.5.3,2,.7l-.7.9c-.4-.3-.8-.5-1.3-.5s-1.5.7-1.5,1.6h0c0,1,.6,1.6,1.6,1.6s.8-.1,1.1-.3v-.7h-1.1v-1h2.2v2.2c-.5.4-1.3.8-2.2.8-1.6,0-2.7-1.1-2.7-2.7"/>
  <path class="st2" d="M69.3,70.9h2.4c.7,0,1.2.2,1.5.5.3.3.4.7.4,1.2h0c0,.8-.4,1.4-1.1,1.6l1.3,1.8h-1.3l-1.1-1.6h-.9v1.6h-1.1v-5.2ZM71.6,73.5c.6,0,.9-.3.9-.7h0c0-.5-.3-.8-.9-.8h-1.1v1.5h1.1Z"/>
  <path class="st2" d="M76.4,70.9h1l2.2,5.2h-1.2l-.5-1.2h-2.2l-.5,1.2h-1.2l2.2-5.2ZM77.6,73.9l-.7-1.7-.7,1.7h1.4Z"/>
  <polygon class="st2" points="80.4 70.9 81.5 70.9 83.9 74.1 83.9 70.9 85 70.9 85 76.1 84.1 76.1 81.6 72.8 81.6 76.1 80.4 76.1 80.4 70.9"/>
  <path class="st2" d="M86.3,70.9h2c1.6,0,2.7,1.1,2.7,2.6h0c0,1.5-1.1,2.6-2.7,2.6h-2v-5.2ZM87.4,72v3.1h.9c.9,0,1.6-.6,1.6-1.5h0c0-.9-.6-1.6-1.6-1.6h-.9Z"/>
  <polygon class="st2" points="63.5 79.8 67.4 79.8 67.4 80.8 64.7 80.8 64.7 81.8 67.1 81.8 67.1 82.8 64.7 82.8 64.7 83.9 67.5 83.9 67.5 84.9 63.5 84.9 63.5 79.8"/>
  <path class="st2" d="M68.2,82.4h0c0-1.5,1.1-2.7,2.7-2.7s1.5.3,2,.7l-.7.9c-.4-.3-.8-.5-1.3-.5s-1.5.7-1.5,1.6h0c0,1,.6,1.6,1.6,1.6s.8-.1,1.1-.3v-.7h-1.1v-1h2.2v2.2c-.5.4-1.3.8-2.2.8-1.6,0-2.7-1.1-2.7-2.7"/>
  <polygon class="st2" points="75.7 82.9 73.7 79.8 75 79.8 76.3 81.9 77.5 79.8 78.8 79.8 76.8 82.9 76.8 84.9 75.7 84.9 75.7 82.9"/>
  <path class="st2" d="M79.5,79.8h2.1c1.2,0,2,.7,2,1.8h0c0,1.2-.9,1.8-2.1,1.8h-.9v1.5h-1.1v-5.2ZM81.5,82.4c.6,0,.9-.3.9-.8h0c0-.5-.4-.8-.9-.8h-.9v1.6h.9Z"/>
  <polygon class="st2" points="85.6 80.8 84.1 80.8 84.1 79.8 88.3 79.8 88.3 80.8 86.8 80.8 86.8 84.9 85.6 84.9 85.6 80.8"/>
  <rect class="st2" x="89.2" y="79.8" width="1.1" height="5.2"/>
  <path class="st2" d="M93.4,79.7h1l2.2,5.2h-1.2l-.5-1.2h-2.2l-.5,1.2h-1.2l2.2-5.2ZM94.6,82.8l-.7-1.7-.7,1.7h1.4Z"/>
  <polygon class="st2" points="97.5 79.8 98.5 79.8 100.9 83 100.9 79.8 102.1 79.8 102.1 84.9 101.1 84.9 98.6 81.7 98.6 84.9 97.5 84.9 97.5 79.8"/>
  <polygon class="st2" points="63.5 88.6 64.7 88.6 66.1 90.8 67.5 88.6 68.7 88.6 68.7 93.8 67.6 93.8 67.6 90.4 66.1 92.6 66.1 92.6 64.6 90.4 64.6 93.8 63.5 93.8 63.5 88.6"/>
  <path class="st2" d="M69.8,91.6v-2.9h1.1v2.9c0,.8.4,1.3,1.1,1.3s1.1-.4,1.1-1.2v-3h1.1v2.9c0,1.6-.9,2.3-2.3,2.3s-2.2-.8-2.2-2.3"/>
  <path class="st2" d="M75.1,93l.7-.8c.5.4.9.6,1.5.6s.7-.2.7-.5h0c0-.3-.2-.4-1-.7-1-.3-1.7-.6-1.7-1.6h0c0-.9.8-1.6,1.8-1.6s1.4.2,1.9.7l-.6.9c-.5-.3-.9-.5-1.3-.5s-.7.2-.7.4h0c0,.4.2.5,1.1.7,1,.3,1.6.6,1.6,1.5h0c0,1-.8,1.6-1.9,1.6s-1.6-.3-2.2-.8"/>
  <polygon class="st2" points="80.2 88.6 84.1 88.6 84.1 89.6 81.3 89.6 81.3 90.7 83.8 90.7 83.8 91.7 81.3 91.7 81.3 92.8 84.1 92.8 84.1 93.8 80.2 93.8 80.2 88.6"/>
  <path class="st2" d="M85.1,91.6v-2.9h1.1v2.9c0,.8.4,1.3,1.1,1.3s1.1-.4,1.1-1.2v-3h1.1v2.9c0,1.6-.9,2.3-2.3,2.3s-2.2-.8-2.2-2.3"/>
  <polygon class="st2" points="90.7 88.6 91.9 88.6 93.3 90.8 94.6 88.6 95.9 88.6 95.9 93.8 94.7 93.8 94.7 90.4 93.3 92.6 93.2 92.6 91.8 90.4 91.8 93.8 90.7 93.8 90.7 88.6"/>
  <rect class="st2" x="58.6" y="71" width=".3" height="22.8"/>
  <polygon class="st1" points="22 95.2 90.1 43.5 54.8 9.9 14.3 71.4 22 95.2"/>
  <line class="st0" x1="-9.7" y1="120.4" x2="-9.7" y2="-15.3"/>
  <g class="st3">
    <polygon class="st1" points="22 95.2 90.1 43.5 54.8 9.9 14.3 71.4 22 95.2"/>
    <path class="st2" d="M56.5,46.8c2.1.7,4.5.1,6.3-1.1.4-.2.8-.6,1.2-1,.4,1.1.9,2.2,1.9,2.2,1.6,0,2.9-3.5,1.5-4.4-.9-.6-1.9.2-2.8.9-.3-.8-.5-1.6-.8-2.4-.4-1.3-.7-2.6-.9-4,0,0-.8.8-.8,1.2.3,1.8.7,3.5,1.3,5.2,0,.2.1.4.2.7,0,0-.1,0-.2.1-1.5,1-3.2,1.6-5.1,1.5-.8,0-1.7-.2-2.4-.8-.4-.3-.6-.5-.7-.7.5-.1,1-.3,1.3-.4,1.3-.4,3.9-.9,4.4-2.5.4-1.2-1.2-2.7-2.4-2-.9.5-1.6,1.6-2.2,2.3-.4.4-.8.9-1.1,1.3-.7,0-1.2-.2-1.1-1,.1-.2.2-.5.3-.8,0-.2-.3.2-.5.5-.7.4-1.8.1-2.5,0-.3,0-.9,1-.7,1.2.7.9.9,1.5.6,2.6-.3,1.1-1,1.4-2.1,1.5-.3,0-.7,1.3-.6,1.2,2.5-.3,4.2-3,3.5-5.3.5,0,1,0,1.4-.3-.1.3-.2.7,0,1,.2.4.6.5,1.1.5-.3,1.1.3,2,1.5,2.4M65.9,43.6c.7-.1,1.3.4,1.4,1,.4,1.8-1.3,1-1.8.3-.2-.3-.4-.6-.5-.9.3-.2.6-.4.9-.4M59,40.5c.5,0,1.2.6,1.5,1.1-.8.4-1.8.7-2.7,1-.4.1-1,.3-1.6.4.6-.8,1.9-2.6,2.8-2.5"/>
    <path class="st2" d="M46.6,34.8c.2,0,.3.1.5.2,2.7.7,6-1.4,8.2-2.7-.3,1.7.6,4.1,2.7,3,.8-.4,1.3-1.2,1.7-2.1.5,1,1.2,2.4,2.3,2,.5-.2,1.2-.8,1.9-1.4.2.4.3.7.5,1,.9,1.6,2.2,1.3,2.9-.2.5-1,1.1-3.1-.6-3.4-.8-.1-1.5.7-2.1,1.2-.1-.4-.3-.9-.4-1.2-.7-2.1-1.2-4.3-1.5-6.5,0,0-.8.8-.8,1.2.3,2.4.8,5.1,1.7,7.4-.5.5-1.2.9-1.9.7-.7-.3-1.3-1.8-1.6-2.3,0-.2-.7.9-.7,1-.4,1.3-1.5,2.3-2.8,1.4-.7-.5-.8-1.3-.8-2.1,1,.1,2,0,3-.2.3,0,.7-1.3.6-1.2-3.4.9-6.4-.8-9.4-2.1-.2,0-.9,1.2-.7,1.2,1.8.7,3.6,1.6,5.4,2.1-2,1.2-4.5,2.5-6.7,2.2-.2,0-.4,0-.6-.2.7-1,1.3-2.5.8-3.5-.9-1.6-2.6,0-3.2,1.1-.6,1.1-.3,2.3.5,3-2.4.7-6.1.4-7.3.4-5.7,0-11.4-.1-17.1-.2-.4,0-.7,1.2-.7,1.2,6.3.1,12.6.2,18.9.2,2.3,0,5.2.3,7.1-1.1M66.5,32.5c1.3.7.1,2.5-1,1.5-.3-.3-.5-.7-.7-1.1.6-.4,1.1-.6,1.6-.4M46,32.5c-1-1.6,1.5-2.5,1.8-.6.1.7-.1,1.2-.5,1.6-.5-.2-1-.6-1.3-1"/>
    <path class="st2" d="M39.1,47.1c2.4,0,6.1.2,8.3-1.2.7-.4,1.3-1.2,1.5-2,.5-1.8-2-1.5-2.5-2.1,1.1-.9,2.5-1.5,3.8-2,.4-.1.6-1.2.6-1.2-.6.2-7.5,3.4-4.8,4.8.6.3,3.4.4,1.2,1.7-.6.4-1.5.4-2.2.5-1.5.2-3.1.3-4.6.3-6.4.1-12.8-.4-19.1-.3-.4,0-.7,1.2-.7,1.2,6.2,0,12.3.4,18.5.3"/>
    <path class="st2" d="M71.3,34.3c-1.9-3.1-2.9-6.4-3.2-10,0,0-.8.8-.8,1.2.3,3.6,1.4,7,3.3,10.1,0,0,.9-.9.7-1.2"/>
    <path class="st2" d="M67.6,37.2c.3,3.6,1.4,7,3.3,10.1,0,0,.9-.9.7-1.2-1.9-3.1-2.9-6.4-3.2-10,0,0-.8.8-.8,1.2"/>
    <path class="st2" d="M67.2,49.3c.3,3.6,1.4,7,3.3,10.1,0,0,.9-.9.7-1.2-1.9-3.1-2.9-6.4-3.2-10,0,0-.8.8-.8,1.2"/>
    <path class="st2" d="M67.6,57.7c-1.7-3.1-3-6.3-4-9.6,0,0-.9.8-.8,1.2.9,2.9,2,5.8,3.4,8.5-4-.6-7-3.4-10.3-5.7,1.8-.4,3.4-1.1,5.2-2,.3-.2.6-1.2.6-1.2-3.1,1.6-5.9,2.7-9.5,2.4-.4,0-.7,1.2-.7,1.2.8,0,1.6,0,2.4,0,0,0,0,0,0,0,1.8,1.2,3.5,2.6,5.3,3.9.1,2.5-2.8,1.1-3.6.4-.9-.8-1.5-1.8-2.3-2.6-.1-.1-.8,1-.7,1.2.2.8.8,2.3-.6,2.1-.5,0-1-.6-1.3-1-.8-1-1.1-2.4-1.7-3.6,0,0,0,0-.1,0-1,.8-2.2.9-3.3.4-.2-.1-.8,1-.7,1.2.4.6,1.3,1.5,1,2.3-.2.6-1,.7-1.6.9-.9.2-1.8.2-2.6.2-2.4.1-4.9.1-7.3.1-4.3,0-8.7-.3-13.1,0-.4,0-.7,1.2-.7,1.2,5.6-.4,11.3,0,16.9,0,2.1,0,4.6.2,6.6-.4,1.1-.3,1.9-1.1,2.4-2.1.4-.7.3-1.3.1-1.8,0,0,0,0,.1,0,1-.1,1.3-.9,2,.1.8,1.2.8,3.2,2.6,3.6,1.4.3,2-1,2.2-2.4,1.3,1.6,2.9,3.5,4.9,2.4.7-.4,1.2-1.1,1.4-1.9,2.1,1.4,4.3,2.4,7,2.4.2,0,.5-.5.6-.9.1-.2.2-.4.1-.5"/>
    <path class="st2" d="M47.5,27c0,.4-.3.7-.7.7s-.7-.3-.7-.7.3-.7.7-.7.7.3.7.7"/>
    <path class="st2" d="M59.4,28.5c0,.4-.3.7-.7.7s-.7-.3-.7-.7.3-.7.7-.7.7.3.7.7"/>
    <path class="st2" d="M61.2,28.5c0,.4-.3.7-.7.7s-.7-.3-.7-.7.3-.7.7-.7.7.3.7.7"/>
    <path class="st2" d="M36.7,49.1c0,.4-.3.7-.7.7s-.7-.3-.7-.7.3-.7.7-.7.7.3.7.7"/>
    <path class="st2" d="M38.5,49.1c0,.4-.3.7-.7.7s-.7-.3-.7-.7.3-.7.7-.7.7.3.7.7"/>
    <path class="st2" d="M48,60c0,.4-.3.7-.7.7s-.7-.3-.7-.7.3-.7.7-.7.7.3.7.7"/>
    <path class="st2" d="M49.8,60c0,.4-.3.7-.7.7s-.7-.3-.7-.7.3-.7.7-.7.7.3.7.7"/>
    <path class="st2" d="M55.4,60.7c0,.4-.3.7-.7.7s-.7-.3-.7-.7.3-.7.7-.7.7.3.7.7"/>
  </g>
  <line class="st0" x1="-9.7" y1="120.4" x2="-9.7" y2="-15.3"/>
</svg>